<svg width="32" height="32" viewBox="0 0 32 32" fill="none" xmlns="http://www.w3.org/2000/svg">
  <!-- Background -->
  <rect width="32" height="32" rx="6" fill="#0ea5e9"/>
  
  <!-- Heart -->
  <path d="M16 26c-.5 0-1-.2-1.3-.5L9 19.8c-2.2-2.2-2.2-5.8 0-8 1.1-1.1 2.5-1.7 4-1.7s2.9.6 4 1.7c1.1-1.1 2.5-1.7 4-1.7s2.9.6 4 1.7c2.2 2.2 2.2 5.8 0 8l-5.7 5.7c-.3.3-.8.5-1.3.5z" fill="white"/>
  
  <!-- Small medical cross -->
  <rect x="15" y="14" width="2" height="6" rx=".5" fill="#0ea5e9"/>
  <rect x="13" y="16" width="6" height="2" rx=".5" fill="#0ea5e9"/>
</svg>
