<svg width="512" height="512" viewBox="0 0 512 512" fill="none" xmlns="http://www.w3.org/2000/svg">
  <!-- Background circle -->
  <circle cx="256" cy="256" r="256" fill="#0ea5e9"/>
  
  <!-- Heart icon -->
  <path d="M256 416c-7.8 0-15.3-3.1-20.9-8.7L128 300.2c-35.3-35.3-35.3-92.7 0-128 17.1-17.1 39.8-26.5 64-26.5s46.9 9.4 64 26.5l0 0 0 0c17.1-17.1 39.8-26.5 64-26.5s46.9 9.4 64 26.5c35.3 35.3 35.3 92.7 0 128L276.9 407.3c-5.6 5.6-13.1 8.7-20.9 8.7z" fill="white" stroke="white" stroke-width="8" stroke-linecap="round" stroke-linejoin="round"/>
  
  <!-- Medical cross on heart -->
  <rect x="246" y="220" width="20" height="80" rx="4" fill="#0ea5e9"/>
  <rect x="216" y="250" width="80" height="20" rx="4" fill="#0ea5e9"/>
</svg>
